HIERARCHY
ROOT joint_Root
{
	OFFSET 0.0 0.0 0.0
	CHANNELS 6 Xposition Yposition Zposition Zrotation Xrotation Yrotation 
	JOINT Hips
	{
		OFFSET 4.5925 91.4895 -427.239
		CHANNELS 6 Xposition Yposition Zposition Zrotation Xrotation Yrotation 
		JOINT Spine
		{
			OFFSET 15.7357 0.0 0.0
			CHANNELS 6 Xposition Yposition Zposition Zrotation Xrotation Yrotation 
			JOINT Chest
			{
				OFFSET 8.98455 -0.406207 0.0
				CHANNELS 6 Xposition Yposition Zposition Zrotation Xrotation Yrotation 
				JOINT Neck
				{
					OFFSET 16.3773 0.0 0.0
					CHANNELS 6 Xposition Yposition Zposition Zrotation Xrotation Yrotation 
					JOINT Head
					{
						OFFSET 6.45672 0.0 0.0
						CHANNELS 6 Xposition Yposition Zposition Zrotation Xrotation Yrotation 
						End Site
						{
							OFFSET 0.0 0.0 0.0
						}
					}
				}
				JOINT Shoulder_L
				{
					OFFSET 12.9942 -0.242716 4.98039
					CHANNELS 6 Xposition Yposition Zposition Zrotation Xrotation Yrotation 
					JOINT UpperArm_L
					{
						OFFSET 5.34809 0.0 0.0
						CHANNELS 6 Xposition Yposition Zposition Zrotation Xrotation Yrotation 
						JOINT LowerArm_L
						{
							OFFSET 24.3286 1.87007e-05 0.0
							CHANNELS 6 Xposition Yposition Zposition Zrotation Xrotation Yrotation 
							JOINT Hand_L
							{
								OFFSET 22.2916 0.0 0.0
								CHANNELS 6 Xposition Yposition Zposition Zrotation Xrotation Yrotation 
								End Site
								{
									OFFSET 0.0 0.0 0.0
								}
							}
						}
					}
				}
				JOINT Shoulder_R
				{
					OFFSET 12.9945 -0.242716 -4.98039
					CHANNELS 6 Xposition Yposition Zposition Zrotation Xrotation Yrotation 
					JOINT UpperArm_R
					{
						OFFSET -5.34813 0.0 0.0
						CHANNELS 6 Xposition Yposition Zposition Zrotation Xrotation Yrotation 
						JOINT LowerArm_R
						{
							OFFSET -24.3289 0.000322201 0.0
							CHANNELS 6 Xposition Yposition Zposition Zrotation Xrotation Yrotation 
							JOINT Hand_R
							{
								OFFSET -22.2915 -0.000108084 0.0
								CHANNELS 6 Xposition Yposition Zposition Zrotation Xrotation Yrotation 
								End Site
								{
									OFFSET 0.0 0.0 0.0
								}
							}
						}
					}
				}
			}
		}
		JOINT UpperLeg_L
		{
			OFFSET -2.19248 -6.46944 0.0
			CHANNELS 6 Xposition Yposition Zposition Zrotation Xrotation Yrotation 
			JOINT LowerLeg_L
			{
				OFFSET 39.0811 0.0 -1.23785e-05
				CHANNELS 6 Xposition Yposition Zposition Zrotation Xrotation Yrotation 
				JOINT Foot_L
				{
					OFFSET 40.9854 0.0 -1.26872e-05
					CHANNELS 6 Xposition Yposition Zposition Zrotation Xrotation Yrotation 
					JOINT Toes_L
					{
						OFFSET 11.7543 0.0 0.0
						CHANNELS 6 Xposition Yposition Zposition Zrotation Xrotation Yrotation 
						End Site
						{
							OFFSET 0.0 0.0 0.0
						}
					}
				}
			}
		}
		JOINT UpperLeg_R
		{
			OFFSET -2.19251 6.46944 0.0
			CHANNELS 6 Xposition Yposition Zposition Zrotation Xrotation Yrotation 
			JOINT LowerLeg_R
			{
				OFFSET -39.0811 -0.00228153 -0.0401928
				CHANNELS 6 Xposition Yposition Zposition Zrotation Xrotation Yrotation 
				JOINT Foot_R
				{
					OFFSET -40.9854 0.0 0.0
					CHANNELS 6 Xposition Yposition Zposition Zrotation Xrotation Yrotation 
					JOINT Toes_R
					{
						OFFSET -11.7543 0.0 0.0
						CHANNELS 6 Xposition Yposition Zposition Zrotation Xrotation Yrotation 
						End Site
						{
							OFFSET 0.0 0.0 0.0
						}
					}
				}
			}
		}
	}
}
MOTION
Frames:	4
Frame Time:	0.0333333
0.000000 0.000000 0.000000 0.000000 0.000000 -0.000000 -0.479838 90.427800 3.481060 89.939500 -4.387010 10.645300 15.735700 0.000005 -0.000001 83.945900 82.103700 -82.974300 8.984550 -0.406207 -0.000000 7.955910 -1.656950 2.056540 16.377300 -0.000001 -0.000001 4.408060 -3.614750 1.144520 6.456720 -0.000001 -0.000000 -0.614124 -2.709080 -3.778560 12.994200 -0.242716 4.980390 -91.500200 5.992160 -75.916800 5.348090 -0.000007 -0.000001 -62.783800 39.368000 -16.629300 24.328600 0.000019 0.000005 8.627920 22.862000 -21.333000 22.291600 -0.000001 0.000005 7.023800 5.326620 -0.687068 12.994500 -0.242716 -4.980390 88.502700 10.816800 -82.070800 -5.348130 -0.000001 -0.000004 -60.865500 32.556100 -11.001400 -24.328900 0.000322 -0.000009 1.141560 3.493900 -18.122000 -22.291500 -0.000108 -0.000004 13.474900 5.407360 -3.177900 -2.192480 -6.469440 -0.000000 -174.184000 -13.565700 3.860910 39.081100 -0.000007 -0.000012 -0.209297 0.360151 30.162800 40.985400 -0.000006 -0.000013 -0.207158 4.781300 -72.863700 11.754300 -0.000000 0.000003 -0.000200 -0.001849 -16.647300 -2.192510 6.469440 -0.000001 172.152000 19.690900 -175.133000 -39.081100 -0.002282 -0.040193 -0.247390 0.436442 29.873400 -40.985400 0.000008 0.000006 3.468100 15.302900 -73.523800 -11.754300 -0.000006 -0.000006 -0.001368 -0.020500 -17.406700
0.000000 0.000000 0.000000 0.000000 0.000000 -0.000000 -0.490132 90.425400 3.445430 89.995300 -4.385390 10.741700 15.735700 0.000005 -0.000001 83.933000 82.078100 -82.945800 8.984550 -0.406207 -0.000000 8.006820 -1.665310 2.089170 16.377300 -0.000001 -0.000001 4.807100 -3.792210 1.204810 6.456720 -0.000001 -0.000000 -0.154031 -2.890280 -3.698710 12.994200 -0.242716 4.980390 -91.498300 6.029410 -76.016600 5.348090 -0.000007 -0.000001 -62.119400 39.054300 -17.437100 24.328600 0.000019 0.000005 8.942320 23.283600 -21.706200 22.291600 -0.000001 0.000005 7.368850 5.345830 -1.251630 12.994500 -0.242716 -4.980390 88.496700 10.771500 -82.006600 -5.348130 -0.000001 -0.000004 -61.173300 32.648700 -11.017200 -24.328900 0.000322 -0.000009 1.108030 3.380520 -18.175600 -22.291500 -0.000108 -0.000004 13.338000 5.409640 -3.253390 -2.192480 -6.469440 -0.000000 -174.196000 -13.601900 3.930550 39.081100 -0.000007 -0.000012 -0.209992 0.361326 30.164300 40.985400 -0.000006 -0.000013 -0.197848 4.840020 -72.835600 11.754300 -0.000000 0.000003 -0.000215 -0.001970 -16.651700 -2.192510 6.469440 -0.000001 172.088000 19.650700 -175.088000 -39.081100 -0.002282 -0.040193 -0.250412 0.440593 29.935800 -40.985400 0.000008 0.000006 3.477510 15.263500 -73.541100 -11.754300 -0.000006 -0.000006 -0.001549 -0.022918 -17.505000
0.000000 0.000000 0.000000 0.000000 0.000000 -0.000000 -0.529725 90.431100 3.353250 90.006600 -4.127990 10.763100 15.735700 0.000005 -0.000001 83.514400 82.073900 -82.506600 8.984550 -0.406207 -0.000000 8.004140 -1.780790 2.138350 16.377300 -0.000001 -0.000001 5.245820 -4.036220 1.282210 6.456720 -0.000001 -0.000000 0.368587 -3.106500 -3.629980 12.994200 -0.242716 4.980390 -91.533700 6.200620 -76.077900 5.348090 -0.000007 -0.000001 -60.454700 38.447400 -19.058700 24.328600 0.000019 0.000005 9.486340 24.186100 -22.188000 22.291600 -0.000001 0.000005 7.473380 5.362540 -1.757200 12.994500 -0.242716 -4.980390 88.487700 10.715800 -81.918500 -5.348130 -0.000001 -0.000004 -61.525800 32.882100 -10.964600 -24.328900 0.000322 -0.000009 1.091340 3.298530 -18.335400 -22.291500 -0.000108 -0.000004 13.280900 5.407940 -3.197220 -2.192480 -6.469440 -0.000000 -174.239000 -13.370300 3.803990 39.081100 -0.000007 -0.000012 -0.210723 0.361814 30.217100 40.985400 -0.000006 -0.000013 -0.203191 4.875440 -72.762900 11.754300 -0.000000 0.000003 -0.000219 -0.001998 -16.652700 -2.192510 6.469440 -0.000001 172.106000 19.796500 -175.107000 -39.081100 -0.002282 -0.040193 -0.245909 0.432282 29.963900 -40.985400 0.000008 0.000006 3.484610 15.132700 -73.514700 -11.754300 -0.000006 -0.000006 -0.001376 -0.020617 -17.411500
0.000000 0.000000 0.000000 0.000000 0.000000 -0.000000 -0.574388 90.430100 3.269940 90.087900 -3.875210 10.916200 15.735700 0.000005 -0.000001 83.374800 82.045300 -82.382000 8.984550 -0.406207 -0.000000 8.056850 -1.825080 2.112290 16.377300 -0.000001 -0.000001 5.810020 -4.287170 1.324390 6.456720 -0.000001 -0.000000 0.994063 -3.456590 -3.472850 12.994200 -0.242716 4.980390 -91.579200 6.371410 -76.048400 5.348090 -0.000007 -0.000001 -58.016000 37.198700 -21.526400 24.328600 0.000019 0.000005 9.987840 24.971400 -22.643500 22.291600 -0.000001 0.000005 7.069170 5.365110 -1.835660 12.994500 -0.242716 -4.980390 88.491400 10.635200 -81.878900 -5.348130 -0.000001 -0.000004 -62.004200 33.084100 -10.785200 -24.328900 0.000322 -0.000009 1.074480 3.225680 -18.451100 -22.291500 -0.000108 -0.000004 13.224100 5.409850 -3.260180 -2.192480 -6.469440 -0.000000 -174.283000 -13.229800 3.852320 39.081100 -0.000007 -0.000012 -0.211512 0.362867 30.238000 40.985400 -0.000006 -0.000013 -0.197173 4.981990 -72.691700 11.754300 -0.000000 0.000003 -0.000226 -0.002052 -16.654700 -2.192510 6.469440 -0.000001 171.999000 19.936800 -175.013000 -39.081100 -0.002282 -0.040193 -0.245217 0.429460 30.057400 -40.985400 0.000008 0.000006 3.504000 15.004200 -73.532100 -11.754300 -0.000006 -0.000006 -0.001441 -0.021485 -17.446800
